<svg width="20" height="13" viewBox="0 0 20 13" fill="none" xmlns="http://www.w3.org/2000/svg">
<path fill-rule="evenodd" clip-rule="evenodd" d="M19.3652 1.53302C19.3652 0.899978 18.8876 0.386795 18.2985 0.386795H17.2318C16.6427 0.386795 16.1652 0.899978 16.1652 1.53302V11.467C16.1652 12.1 16.6427 12.6132 17.2318 12.6132H18.2985C18.8876 12.6132 19.3652 12.1 19.3652 11.467V1.53302ZM11.931 2.83208H12.9977C13.5868 2.83208 14.0644 3.35758 14.0644 4.00581V11.4395C14.0644 12.0877 13.5868 12.6132 12.9977 12.6132H11.931C11.3419 12.6132 10.8644 12.0877 10.8644 11.4395V4.00581C10.8644 3.35758 11.3419 2.83208 11.931 2.83208ZM7.59928 5.48112H6.53261C5.94351 5.48112 5.46594 6.01331 5.46594 6.6698V11.4245C5.46594 12.081 5.94351 12.6132 6.53261 12.6132H7.59928C8.18838 12.6132 8.66594 12.081 8.66594 11.4245V6.6698C8.66594 6.01331 8.18838 5.48112 7.59928 5.48112ZM2.29849 7.92642H1.23183C0.642724 7.92642 0.165161 8.451 0.165161 9.09812V11.4415C0.165161 12.0886 0.642724 12.6132 1.23183 12.6132H2.29849C2.8876 12.6132 3.36516 12.0886 3.36516 11.4415V9.09812C3.36516 8.451 2.8876 7.92642 2.29849 7.92642Z" fill="black"/>
</svg>
