<svg width="18" height="13" viewBox="0 0 18 13" fill="none" xmlns="http://www.w3.org/2000/svg">
<path fill-rule="evenodd" clip-rule="evenodd" d="M8.93641 2.80213C11.4235 2.80223 13.8155 3.72432 15.618 5.3778C15.7538 5.50545 15.9707 5.50384 16.1044 5.37419L17.4019 4.11072C17.4696 4.04496 17.5073 3.95588 17.5068 3.8632C17.5062 3.77052 17.4674 3.68187 17.3989 3.61688C12.6679 -0.757833 5.20418 -0.757833 0.473168 3.61688C0.404636 3.68183 0.365752 3.77044 0.36512 3.86313C0.364488 3.95581 0.402161 4.04491 0.469801 4.11072L1.76767 5.37419C1.90126 5.50404 2.11839 5.50565 2.25404 5.3778C4.05678 3.72421 6.44906 2.80212 8.93641 2.80213ZM8.93306 7.0224C10.2904 7.02232 11.5993 7.53406 12.6054 8.45819C12.7415 8.58934 12.9558 8.5865 13.0885 8.45178L14.3758 7.13247C14.4436 7.06327 14.4812 6.96939 14.4802 6.87184C14.4792 6.77429 14.4397 6.68121 14.3706 6.61342C11.3067 3.72257 6.56199 3.72257 3.49816 6.61342C3.42895 6.68121 3.38947 6.77434 3.38856 6.87192C3.38765 6.9695 3.4254 7.06337 3.49333 7.13247L4.78024 8.45178C4.91289 8.5865 5.12726 8.58934 5.26334 8.45819C6.26879 7.53467 7.57664 7.02297 8.93306 7.0224ZM11.4575 9.81596C11.4594 9.9213 11.4223 10.0229 11.355 10.0967L9.17838 12.5514C9.11458 12.6236 9.02758 12.6642 8.93681 12.6642C8.84604 12.6642 8.75905 12.6236 8.69524 12.5514L6.51822 10.0967C6.45096 10.0228 6.41397 9.92122 6.41596 9.81587C6.41796 9.71052 6.45877 9.61075 6.52875 9.54014C7.91885 8.22625 9.95478 8.22625 11.3449 9.54014C11.4148 9.61081 11.4556 9.7106 11.4575 9.81596Z" fill="black"/>
</svg>
